<svg width="394" height="90" viewBox="0 0 394 90" fill="none" xmlns="http://www.w3.org/2000/svg">
<path d="M20.2614 14.2163C21.4006 10.2291 23.679 7.13702 27.0966 4.94C30.5142 2.74298 34.3386 1.64447 38.5699 1.64447V24.1029C33.9317 23.3706 29.7005 24.225 25.876 26.6661C22.1329 29.1072 20.2614 33.0944 20.2614 38.6276V63.8934H0V2.86504H20.2614V14.2163Z" fill="#FCFCFC"/>
<path d="M85.2436 2.86504H105.505V63.8934H85.2436V58.2788C81.0937 63.161 75.3163 65.6022 67.9116 65.6022C59.7745 65.6022 52.9393 62.5507 47.4061 56.4479C41.9542 50.2637 39.2283 42.5741 39.2283 33.3792C39.2283 24.1843 41.9542 16.5354 47.4061 10.4326C52.9393 4.24835 59.7745 1.15625 67.9116 1.15625C75.3163 1.15625 81.0937 3.59738 85.2436 8.47965V2.86504ZM63.1514 43.0217C65.5111 45.4628 68.6032 46.6834 72.4277 46.6834C76.2521 46.6834 79.3442 45.4628 81.704 43.0217C84.0637 40.5805 85.2436 37.3664 85.2436 33.3792C85.2436 29.392 84.0637 26.1779 81.704 23.7367C79.3442 21.2956 76.2521 20.075 72.4277 20.075C68.6032 20.075 65.5111 21.2956 63.1514 23.7367C60.7916 26.1779 59.6117 29.392 59.6117 33.3792C59.6117 37.3664 60.7916 40.5805 63.1514 43.0217Z" fill="#FCFCFC"/>
<path d="M149.962 1.15625C158.099 1.15625 164.894 4.24835 170.346 10.4326C175.879 16.5354 178.646 24.1843 178.646 33.3792C178.646 42.5741 175.879 50.2637 170.346 56.4479C164.894 62.5507 158.099 65.6022 149.962 65.6022C142.557 65.6022 136.78 63.161 132.63 58.2788V88.3047H112.369V2.86504H132.63V8.47965C136.78 3.59738 142.557 1.15625 149.962 1.15625ZM136.17 43.0217C138.53 45.4628 141.622 46.6834 145.446 46.6834C149.271 46.6834 152.363 45.4628 154.722 43.0217C157.082 40.5805 158.262 37.3664 158.262 33.3792C158.262 29.392 157.082 26.1779 154.722 23.7367C152.363 21.2956 149.271 20.075 145.446 20.075C141.622 20.075 138.53 21.2956 136.17 23.7367C133.81 26.1779 132.63 29.392 132.63 33.3792C132.63 37.3664 133.81 40.5805 136.17 43.0217Z" fill="#FCFCFC"/>
<path d="M200.557 20.6853C200.557 21.8245 201.574 22.7603 203.608 23.4926C205.724 24.225 208.246 24.9166 211.176 25.5676C214.186 26.2185 217.156 27.1543 220.086 28.3749C223.096 29.5141 225.619 31.5077 227.653 34.3557C229.769 37.2036 230.827 40.784 230.827 45.0966C230.827 52.0946 228.223 57.2616 223.015 60.5978C217.807 63.9341 211.623 65.6022 204.462 65.6022C190.792 65.6022 181.679 60.7606 177.122 51.0774L194.82 42.1673C196.366 46.6427 199.539 48.8804 204.34 48.8804C208.002 48.8804 209.833 47.7819 209.833 45.5849C209.833 44.4457 208.816 43.5099 206.782 42.7776C204.747 42.0452 202.265 41.3129 199.336 40.5805C196.407 39.8482 193.477 38.8718 190.548 37.6512C187.619 36.4306 185.137 34.4777 183.103 31.7925C181.068 29.0258 180.051 25.6489 180.051 21.6618C180.051 15.1521 182.452 10.1071 187.252 6.52674C192.053 2.94641 197.831 1.15625 204.584 1.15625C216.627 1.15625 225.009 5.87577 229.728 15.3148L212.64 23.0044C210.85 19.5054 208.328 17.756 205.073 17.756C202.062 17.756 200.557 18.7324 200.557 20.6853Z" fill="#FCFCFC"/>
<path d="M276.687 2.86504H296.948V63.8934H276.687V58.2788C272.537 63.161 266.759 65.6022 259.355 65.6022C251.217 65.6022 244.382 62.5507 238.849 56.4479C233.397 50.2637 230.671 42.5741 230.671 33.3792C230.671 24.1843 233.397 16.5354 238.849 10.4326C244.382 4.24835 251.217 1.15625 259.355 1.15625C266.759 1.15625 272.537 3.59738 276.687 8.47965V2.86504ZM254.594 43.0217C256.954 45.4628 260.046 46.6834 263.871 46.6834C267.695 46.6834 270.787 45.4628 273.147 43.0217C275.507 40.5805 276.687 37.3664 276.687 33.3792C276.687 29.392 275.507 26.1779 273.147 23.7367C270.787 21.2956 267.695 20.075 263.871 20.075C260.046 20.075 256.954 21.2956 254.594 23.7367C252.235 26.1779 251.055 29.392 251.055 33.3792C251.055 37.3664 252.235 40.5805 254.594 43.0217Z" fill="#FCFCFC"/>
<path d="M341.405 1.15625C349.542 1.15625 356.337 4.24835 361.789 10.4326C367.322 16.5354 370.089 24.1843 370.089 33.3792C370.089 42.5741 367.322 50.2637 361.789 56.4479C356.337 62.5507 349.542 65.6022 341.405 65.6022C334 65.6022 328.223 63.161 324.073 58.2788V88.3047H303.812V2.86504H324.073V8.47965C328.223 3.59738 334 1.15625 341.405 1.15625ZM327.613 43.0217C329.973 45.4628 333.065 46.6834 336.889 46.6834C340.714 46.6834 343.806 45.4628 346.165 43.0217C348.525 40.5805 349.705 37.3664 349.705 33.3792C349.705 29.392 348.525 26.1779 346.165 23.7367C343.806 21.2956 340.714 20.075 336.889 20.075C333.065 20.075 329.973 21.2956 327.613 23.7367C325.253 26.1779 324.073 29.392 324.073 33.3792C324.073 37.3664 325.253 40.5805 327.613 43.0217Z" fill="#FCFCFC"/>
<path d="M393.001 54.0288C393.001 60.1551 388.035 65.1214 381.908 65.1214C375.782 65.1214 370.816 60.1551 370.816 54.0288C370.816 47.9026 375.782 42.9362 381.908 42.9362C388.035 42.9362 393.001 47.9026 393.001 54.0288Z" fill="#5074F3"/>
</svg>
